<?xml version="1.0" encoding="utf-8"?><svg viewBox="0 0 47 47" xmlns="http://www.w3.org/2000/svg" xmlns:xlink="http://www.w3.org/1999/xlink"><style>:root>svg{display:none}:root>svg:target{display:block}</style><svg fill="none" viewBox="0 0 47 47" id="btn-open-filters" xmlns="http://www.w3.org/2000/svg"><rect width="47" height="47" rx="3" fill="#F6F6F6"/><g clip-path="url(#aclip0_862_5405)"><path d="M21.78 33.125H9.14C8.51 33.125 8 33.63 8 34.25s.51 1.125 1.139 1.125H21.78c.528 2.567 2.825 4.5 5.58 4.5 2.754 0 5.05-1.933 5.578-4.5h5.809c.629 0 1.139-.504 1.139-1.125 0-.62-.51-1.125-1.14-1.125h-5.808c-.527-2.567-2.824-4.5-5.579-4.5-2.754 0-5.051 1.933-5.579 4.5zm8.995 1.125c0 1.864-1.529 3.375-3.416 3.375s-3.416-1.51-3.416-3.375c0-1.864 1.53-3.375 3.416-3.375 1.887 0 3.416 1.51 3.416 3.375zM10.393 21.875H9.139C8.51 21.875 8 22.379 8 23s.51 1.125 1.139 1.125h1.254c.527 2.567 2.824 4.5 5.579 4.5 2.754 0 5.051-1.933 5.578-4.5h17.197c.629 0 1.139-.504 1.139-1.125s-.51-1.125-1.14-1.125H21.55c-.527-2.567-2.824-4.5-5.579-4.5-2.754 0-5.051 1.933-5.578 4.5zM19.388 23c0 1.864-1.53 3.375-3.417 3.375-1.886 0-3.416-1.51-3.416-3.375 0-1.864 1.53-3.375 3.417-3.375 1.886 0 3.416 1.51 3.416 3.375zm6.947-12.375H9.14C8.51 10.625 8 11.129 8 11.75s.51 1.125 1.139 1.125h17.197c.527 2.567 2.824 4.5 5.578 4.5 2.755 0 5.052-1.933 5.58-4.5h1.253c.629 0 1.139-.504 1.139-1.125 0-.62-.51-1.125-1.14-1.125h-1.253c-.527-2.567-2.824-4.5-5.579-4.5-2.754 0-5.051 1.933-5.579 4.5zm8.996 1.125c0 1.864-1.53 3.375-3.417 3.375-1.887 0-3.416-1.51-3.416-3.375 0-1.864 1.53-3.375 3.416-3.375 1.887 0 3.417 1.51 3.417 3.375z" fill="#63A60E"/></g><defs><clipPath id="aclip0_862_5405"><path fill="#fff" transform="translate(8 5)" d="M0 0h31.886v36H0z"/></clipPath></defs></svg><svg fill="none" viewBox="0 0 47 47" id="btn-view-grid" xmlns="http://www.w3.org/2000/svg"><rect width="47" height="47" rx="3" fill="#F6F6F6"/><path d="M12.044 32.444H7.511c-.834 0-1.511.677-1.511 1.512v4.533C6 39.324 6.677 40 7.511 40h4.533c.835 0 1.512-.676 1.512-1.511v-4.533c0-.835-.677-1.512-1.512-1.512zM26.211 32.444h-4.533c-.835 0-1.511.677-1.511 1.512v4.533c0 .835.676 1.511 1.51 1.511h4.534c.835 0 1.511-.676 1.511-1.511v-4.533c0-.835-.676-1.512-1.51-1.512zM40.378 32.444h-4.534c-.834 0-1.51.677-1.51 1.512v4.533c0 .835.676 1.511 1.51 1.511h4.534c.834 0 1.51-.676 1.51-1.511v-4.533c0-.835-.676-1.512-1.51-1.512zM12.044 19.222H7.511C6.677 19.222 6 19.9 6 20.733v4.534c0 .834.677 1.51 1.511 1.51h4.533c.835 0 1.512-.676 1.512-1.51v-4.534c0-.834-.677-1.51-1.512-1.51zM26.211 19.222h-4.533c-.835 0-1.511.677-1.511 1.511v4.534c0 .834.676 1.51 1.51 1.51h4.534c.835 0 1.511-.676 1.511-1.51v-4.534c0-.834-.676-1.51-1.51-1.51zM40.378 19.222h-4.534c-.834 0-1.51.677-1.51 1.511v4.534c0 .834.676 1.51 1.51 1.51h4.534c.834 0 1.51-.676 1.51-1.51v-4.534c0-.834-.676-1.51-1.51-1.51zM12.044 6H7.511C6.677 6 6 6.677 6 7.511v4.533c0 .835.677 1.512 1.511 1.512h4.533c.835 0 1.512-.677 1.512-1.512V7.511c0-.834-.677-1.511-1.512-1.511zM26.211 6h-4.533c-.835 0-1.511.677-1.511 1.511v4.533c0 .835.676 1.512 1.51 1.512h4.534c.835 0 1.511-.677 1.511-1.512V7.511c0-.834-.676-1.511-1.51-1.511zM40.378 6h-4.534c-.834 0-1.51.677-1.51 1.511v4.533c0 .835.676 1.512 1.51 1.512h4.534c.834 0 1.51-.677 1.51-1.512V7.511c0-.834-.676-1.511-1.51-1.511z" fill="#63A60E"/></svg><svg fill="none" viewBox="0 0 47 47" id="btn-view-grid--disabled" xmlns="http://www.w3.org/2000/svg"><rect width="47" height="47" rx="3" fill="#F6F6F6"/><path d="M12.044 32.444H7.511c-.834 0-1.511.677-1.511 1.512v4.533C6 39.324 6.677 40 7.511 40h4.533c.835 0 1.512-.676 1.512-1.511v-4.533c0-.835-.677-1.512-1.512-1.512zM26.211 32.444h-4.533c-.835 0-1.511.677-1.511 1.512v4.533c0 .835.676 1.511 1.51 1.511h4.534c.835 0 1.511-.676 1.511-1.511v-4.533c0-.835-.676-1.512-1.51-1.512zM40.378 32.444h-4.534c-.834 0-1.51.677-1.51 1.512v4.533c0 .835.676 1.511 1.51 1.511h4.534c.834 0 1.51-.676 1.51-1.511v-4.533c0-.835-.676-1.512-1.51-1.512zM12.044 19.222H7.511C6.677 19.222 6 19.9 6 20.733v4.534c0 .834.677 1.51 1.511 1.51h4.533c.835 0 1.512-.676 1.512-1.51v-4.534c0-.834-.677-1.51-1.512-1.51zM26.211 19.222h-4.533c-.835 0-1.511.677-1.511 1.511v4.534c0 .834.676 1.51 1.51 1.51h4.534c.835 0 1.511-.676 1.511-1.51v-4.534c0-.834-.676-1.51-1.51-1.51zM40.378 19.222h-4.534c-.834 0-1.51.677-1.51 1.511v4.534c0 .834.676 1.51 1.51 1.51h4.534c.834 0 1.51-.676 1.51-1.51v-4.534c0-.834-.676-1.51-1.51-1.51zM12.044 6H7.511C6.677 6 6 6.677 6 7.511v4.533c0 .835.677 1.512 1.511 1.512h4.533c.835 0 1.512-.677 1.512-1.512V7.511c0-.834-.677-1.511-1.512-1.511zM26.211 6h-4.533c-.835 0-1.511.677-1.511 1.511v4.533c0 .835.676 1.512 1.51 1.512h4.534c.835 0 1.511-.677 1.511-1.512V7.511c0-.834-.676-1.511-1.51-1.511zM40.378 6h-4.534c-.834 0-1.51.677-1.51 1.511v4.533c0 .835.676 1.512 1.51 1.512h4.534c.834 0 1.51-.677 1.51-1.512V7.511c0-.834-.676-1.511-1.51-1.511z" fill="#C1C1C1"/></svg><svg fill="none" viewBox="0 0 47 47" id="btn-view-list" xmlns="http://www.w3.org/2000/svg"><rect width="47" height="47" rx="3" fill="#F6F6F6"/><path d="M38.4 34h-7.8c-1.436 0-2.6.627-2.6 1.4v4.2c0 .773 1.164 1.4 2.6 1.4h7.8c1.436 0 2.6-.627 2.6-1.4v-4.2c0-.773-1.164-1.4-2.6-1.4zM16.4 34H8.6c-1.436 0-2.6.627-2.6 1.4v4.2c0 .773 1.164 1.4 2.6 1.4h7.8c1.436 0 2.6-.627 2.6-1.4v-4.2c0-.773-1.164-1.4-2.6-1.4zM38.4 20h-7.8c-1.436 0-2.6.627-2.6 1.4v4.2c0 .773 1.164 1.4 2.6 1.4h7.8c1.436 0 2.6-.627 2.6-1.4v-4.2c0-.773-1.164-1.4-2.6-1.4zM16.4 20H8.6c-1.436 0-2.6.627-2.6 1.4v4.2c0 .773 1.164 1.4 2.6 1.4h7.8c1.436 0 2.6-.627 2.6-1.4v-4.2c0-.773-1.164-1.4-2.6-1.4zM38.4 6h-7.8c-1.436 0-2.6.627-2.6 1.4v4.2c0 .773 1.164 1.4 2.6 1.4h7.8c1.436 0 2.6-.627 2.6-1.4V7.4c0-.773-1.164-1.4-2.6-1.4zM16.4 6H8.6C7.164 6 6 6.627 6 7.4v4.2c0 .773 1.164 1.4 2.6 1.4h7.8c1.436 0 2.6-.627 2.6-1.4V7.4c0-.773-1.164-1.4-2.6-1.4z" fill="#63A60E"/></svg><svg fill="none" viewBox="0 0 47 47" id="btn-view-list--disabled" xmlns="http://www.w3.org/2000/svg"><rect width="47" height="47" rx="3" fill="#F6F6F6"/><path d="M38.4 34h-7.8c-1.436 0-2.6.627-2.6 1.4v4.2c0 .773 1.164 1.4 2.6 1.4h7.8c1.436 0 2.6-.627 2.6-1.4v-4.2c0-.773-1.164-1.4-2.6-1.4zM16.4 34H8.6c-1.436 0-2.6.627-2.6 1.4v4.2c0 .773 1.164 1.4 2.6 1.4h7.8c1.436 0 2.6-.627 2.6-1.4v-4.2c0-.773-1.164-1.4-2.6-1.4zM38.4 20h-7.8c-1.436 0-2.6.627-2.6 1.4v4.2c0 .773 1.164 1.4 2.6 1.4h7.8c1.436 0 2.6-.627 2.6-1.4v-4.2c0-.773-1.164-1.4-2.6-1.4zM16.4 20H8.6c-1.436 0-2.6.627-2.6 1.4v4.2c0 .773 1.164 1.4 2.6 1.4h7.8c1.436 0 2.6-.627 2.6-1.4v-4.2c0-.773-1.164-1.4-2.6-1.4zM38.4 6h-7.8c-1.436 0-2.6.627-2.6 1.4v4.2c0 .773 1.164 1.4 2.6 1.4h7.8c1.436 0 2.6-.627 2.6-1.4V7.4c0-.773-1.164-1.4-2.6-1.4zM16.4 6H8.6C7.164 6 6 6.627 6 7.4v4.2c0 .773 1.164 1.4 2.6 1.4h7.8c1.436 0 2.6-.627 2.6-1.4V7.4c0-.773-1.164-1.4-2.6-1.4z" fill="#C1C1C1"/></svg><svg fill="none" viewBox="0 0 11 6" id="chevron--small" xmlns="http://www.w3.org/2000/svg"><path d="M5.039 5.84L.16.94a.554.554 0 010-.779.545.545 0 01.774 0l4.492 4.512L9.917.162a.546.546 0 01.775 0 .554.554 0 010 .779l-4.879 4.9a.551.551 0 01-.774 0z" fill="#C1C1C1"/></svg><svg fill="none" viewBox="0 0 40 36" id="youtube" xmlns="http://www.w3.org/2000/svg"><g clip-path="url(#gclip0_639_1741)" filter="url(#gfilter0_d_639_1741)"><path d="M35.292 7.905l.04.262c-.387-1.372-1.43-2.43-2.757-2.816l-.028-.007c-2.495-.677-12.534-.677-12.534-.677S10 4.653 7.48 5.344A4.058 4.058 0 004.703 8.14l-.007.028c-.932 4.868-.939 10.717.041 15.93l-.041-.265c.387 1.372 1.43 2.43 2.757 2.816l.028.007c2.492.678 12.534.678 12.534.678s10.012 0 12.533-.678a4.058 4.058 0 002.779-2.795l.006-.028c.424-2.264.667-4.87.667-7.53l-.001-.295V15.7a43.01 43.01 0 00-.707-7.795zM16.81 20.868v-9.724l8.354 4.87-8.354 4.854z" fill="#31352B"/></g><defs><clipPath id="gclip0_639_1741"><path fill="#fff" transform="translate(4)" d="M0 0h32v32H0z"/></clipPath><filter id="gfilter0_d_639_1741" x="0" y="0" width="40" height="40" filterUnits="userSpaceOnUse" color-interpolation-filters="sRGB"><feFlood flood-opacity="0" result="BackgroundImageFix"/><feColorMatrix in="SourceAlpha" values="0 0 0 0 0 0 0 0 0 0 0 0 0 0 0 0 0 0 127 0" result="hardAlpha"/><feOffset dy="4"/><feGaussianBlur stdDeviation="2"/><feComposite in2="hardAlpha" operator="out"/><feColorMatrix values="0 0 0 0 0 0 0 0 0 0 0 0 0 0 0 0 0 0 0.25 0"/><feBlend in2="BackgroundImageFix" result="effect1_dropShadow_639_1741"/><feBlend in="SourceGraphic" in2="effect1_dropShadow_639_1741" result="shape"/></filter></defs></svg></svg>