<svg width="88" height="39" viewBox="0 0 88 39" fill="none" xmlns="http://www.w3.org/2000/svg">
<g opacity="0.5" clip-path="url(#clip0_81_46)" filter="url(#filter0_d_81_46)">
<path d="M19.2258 30.3372C10.9068 30.3372 4.13861 23.5636 4.13861 15.2385C4.13861 6.91252 10.9068 0.13916 19.2258 0.13916C27.5445 0.13916 34.3124 6.91279 34.3124 15.2385C34.3124 23.5636 27.5445 30.3372 19.2258 30.3372Z" fill="white"/>
<path d="M19.2258 0.277937C27.4811 0.277937 34.1738 6.97583 34.1738 15.2385C34.1738 23.5012 27.4811 30.1988 19.2258 30.1988C10.97 30.1988 4.27734 23.5009 4.27734 15.2385C4.27734 6.9761 10.97 0.277937 19.2258 0.277937ZM19.2258 0.000488281C10.8303 0.000488281 4 6.83627 4 15.2385C4 23.6411 10.8303 30.4763 19.2258 30.4763C27.6211 30.4763 34.4511 23.6402 34.4511 15.2385C34.4511 6.83627 27.6211 0.000488281 19.2258 0.000488281Z" fill="#004883"/>
<path d="M83.7198 9.10215C83.8876 8.90627 83.9999 8.68293 83.9999 8.40298C84.002 8.12511 83.9024 7.85608 83.7198 7.64666C83.5232 7.45022 83.2728 7.33813 82.9918 7.33813C82.7128 7.33813 82.4893 7.4505 82.2644 7.64666C82.0694 7.84281 81.9843 8.09474 81.9843 8.40298C81.9843 8.68293 82.0694 8.90627 82.2644 9.10215C82.4893 9.29831 82.7128 9.3821 82.9918 9.3821C83.2728 9.3821 83.5232 9.29831 83.7198 9.10215ZM83.7767 19.4063V10.3623H82.2646L82.2932 19.4063H83.7767ZM80.2772 10.8107L80.026 10.6983C79.354 10.306 78.5419 10.1104 77.5629 10.1104C76.4991 10.1104 75.6316 10.362 74.9879 10.8662C74.652 11.1184 74.4279 11.37 74.2601 11.7066C74.0926 12.0143 74.0077 12.3222 74.0077 12.686C74.0077 13.3022 74.2884 13.806 74.7926 14.2538C75.2677 14.6742 75.9671 15.0101 76.8909 15.2898C77.6742 15.5417 78.2061 15.7939 78.5419 16.0461C78.8223 16.3264 78.9904 16.6341 78.9904 17.0258C78.9904 17.4459 78.7663 17.7819 78.3739 18.0621C77.9817 18.2863 77.4215 18.4261 76.7229 18.4261C75.9666 18.4261 75.2117 18.2299 74.4279 17.8654L74.2318 17.7261L73.5881 18.9016L73.8128 19.0137C74.68 19.4338 75.6321 19.6294 76.6674 19.6294C77.787 19.6294 78.7106 19.4055 79.438 18.9016C79.8019 18.6775 80.054 18.3701 80.2501 18.0624C80.445 17.6983 80.5296 17.3058 80.5296 16.914V16.8851C80.5296 16.2134 80.2501 15.6253 79.7181 15.1497C79.2708 14.7582 78.5428 14.4217 77.5909 14.142C76.8629 13.889 76.3316 13.6373 76.0234 13.4415C75.6876 13.189 75.5478 12.9096 75.5478 12.6016C75.5478 12.2373 75.6876 11.9579 75.9963 11.706C76.3316 11.4816 76.7786 11.3414 77.3669 11.3414C78.1786 11.3414 78.8503 11.4816 79.3823 11.8175L79.5784 11.9577L80.2772 10.8107ZM71.1537 11.4824C70.1181 10.5865 68.831 10.1107 67.3467 10.1107C65.8915 10.1107 64.6881 10.5582 63.7088 11.4263C62.6167 12.4068 62.0576 13.7503 62.0576 15.5143V22.542H63.5122V18.0063C63.9604 18.5099 64.5209 18.9022 65.192 19.1827C65.8637 19.4901 66.5912 19.6299 67.3755 19.6299C68.8587 19.6299 70.1181 19.1827 71.1537 18.2297C72.2175 17.3058 72.7484 16.1863 72.7484 14.8698C72.7484 13.5261 72.2175 12.4066 71.1537 11.4824ZM67.3467 11.37C68.4388 11.37 69.3898 11.7066 70.1173 12.378C70.8736 13.05 71.2654 13.8895 71.2654 14.8986C71.2654 15.8497 70.929 16.6338 70.2576 17.3058C69.5301 18.0058 68.5506 18.3701 67.3752 18.3701C66.1988 18.3701 65.2469 18.006 64.4917 17.3058C63.7926 16.6063 63.457 15.8222 63.457 14.8986C63.457 13.9739 63.7929 13.1623 64.4917 12.4898C65.22 11.7623 66.1719 11.37 67.3467 11.37ZM59.734 11.9307C58.7553 10.6983 57.3556 10.1104 55.4799 10.1104C54.0805 10.1104 52.8763 10.5024 51.8413 11.342C50.7222 12.2101 50.1625 13.3865 50.1625 14.8423C50.1625 15.6541 50.3861 16.4662 50.8617 17.222C51.2822 17.9497 51.9256 18.5382 52.7934 18.9857C53.6606 19.406 54.5841 19.6016 55.5917 19.6016C56.5435 19.6016 57.4388 19.406 58.3071 18.9857C59.1738 18.5382 59.8178 17.9497 60.2377 17.222L60.5178 16.7459H58.8948C58.5584 17.222 58.0819 17.6143 57.4673 17.922C56.8516 18.2297 56.1799 18.3701 55.536 18.3701C54.6404 18.3701 53.8847 18.1453 53.2127 17.6975C52.541 17.2217 52.0936 16.6338 51.8135 15.8497C52.7365 15.4857 53.6606 15.2895 54.6687 15.2895L56.1799 15.4571L58.5306 15.6816C59.2581 15.6816 59.8749 15.5695 60.4337 15.4019C60.6581 15.3176 60.7976 15.2055 60.8542 15.0654C60.9377 14.9535 60.9377 14.7582 60.8825 14.5332C60.7136 13.5261 60.35 12.6585 59.734 11.9307ZM59.343 14.2272L59.3707 14.2827L58.5587 14.3945L56.7956 14.2269L54.3326 14.0302H53.9127C53.1289 14.0862 52.4015 14.2269 51.7015 14.4783C51.813 13.442 52.3175 12.6296 53.1572 12.0423C53.8564 11.5936 54.6407 11.342 55.4799 11.342C56.7948 11.342 57.8029 11.7621 58.5587 12.6022C58.9508 13.1066 59.2301 13.6382 59.343 14.2272ZM43.6407 10.1104C42.2132 10.1104 40.9818 10.5579 40.0023 11.4261C38.9107 12.4066 38.3787 13.75 38.3787 15.5137L38.351 22.5415H39.8625L39.8342 18.0058C40.2821 18.5096 40.8418 18.9016 41.4858 19.1821C42.1852 19.4898 42.9132 19.6291 43.6967 19.6291C45.1802 19.6291 46.4396 19.1821 47.4754 18.2294C48.5387 17.3055 49.0424 16.1854 49.0424 14.8692C49.0424 13.5252 48.5387 12.4057 47.5029 11.4816C46.4396 10.5862 45.1802 10.1104 43.6407 10.1104ZM40.786 12.4901C41.5418 11.7623 42.4656 11.37 43.6407 11.37C44.7606 11.37 45.6841 11.7066 46.439 12.378C47.1956 13.05 47.5586 13.8895 47.5586 14.8986C47.5586 15.8497 47.2233 16.6338 46.5788 17.3058C45.8519 18.0058 44.9001 18.3701 43.6687 18.3701C42.5211 18.3701 41.5418 18.006 40.7858 17.3058C40.114 16.6063 39.7782 15.8222 39.7782 14.8986C39.7785 13.9742 40.114 13.1626 40.786 12.4901Z" fill="#004883"/>
<path d="M27.7734 3.90214C27.6449 3.80483 27.523 3.69918 27.4084 3.58585C25.0143 1.89653 22.1555 0.991625 19.2258 0.995864C11.3669 0.995864 4.99589 7.37219 4.99589 15.2379C4.99155 18.3029 5.97942 21.287 7.8117 23.7436C12.5736 22.3369 16.7281 19.8896 20.2886 16.3524C23.8446 12.8321 26.3434 8.66566 27.7734 3.90214Z" fill="#E32934"/>
<path d="M19.2258 29.4799C27.0841 29.4799 33.4551 23.1028 33.4551 15.2376C33.4551 12.4534 32.6564 9.85736 31.2769 7.66412C31.2407 7.62796 31.2082 7.58827 31.1799 7.54565C31.4694 8.50154 31.616 9.49501 31.615 10.4938C31.615 12.11 31.2417 13.6395 30.5084 15.0717C29.7833 16.4319 28.7639 17.613 27.5245 18.529C26.53 19.2629 25.3364 19.8849 23.9311 20.3949C22.8126 20.8044 21.3577 21.2278 19.5553 21.6376L14.3579 22.8076C12.1484 23.3142 10.136 23.8563 8.34332 24.4115C10.9533 27.5114 14.8594 29.4799 19.2258 29.4799Z" fill="#004883"/>
</g>
<defs>
<filter id="filter0_d_81_46" x="0" y="0" width="88" height="38.4761" filterUnits="userSpaceOnUse" color-interpolation-filters="sRGB">
<feFlood flood-opacity="0" result="BackgroundImageFix"/>
<feColorMatrix in="SourceAlpha" type="matrix" values="0 0 0 0 0 0 0 0 0 0 0 0 0 0 0 0 0 0 127 0" result="hardAlpha"/>
<feOffset dy="4"/>
<feGaussianBlur stdDeviation="2"/>
<feComposite in2="hardAlpha" operator="out"/>
<feColorMatrix type="matrix" values="0 0 0 0 0 0 0 0 0 0 0 0 0 0 0 0 0 0 0.25 0"/>
<feBlend mode="normal" in2="BackgroundImageFix" result="effect1_dropShadow_81_46"/>
<feBlend mode="normal" in="SourceGraphic" in2="effect1_dropShadow_81_46" result="shape"/>
</filter>
<clipPath id="clip0_81_46">
<rect width="80" height="30.4762" fill="white" transform="translate(4)"/>
</clipPath>
</defs>
</svg>
